<?xml version="1.0" standalone="no"?>
<!DOCTYPE svg PUBLIC "-//W3C//DTD SVG 20010904//EN"
 "http://www.w3.org/TR/2001/REC-SVG-20010904/DTD/svg10.dtd">
<svg version="1.0" xmlns="http://www.w3.org/2000/svg"
 width="512.000000pt" height="512.000000pt" viewBox="0 0 512.000000 512.000000"
 preserveAspectRatio="xMidYMid meet">
<metadata>
Created by potrace 1.14, written by Peter Selinger 2001-2017
</metadata>
<g transform="translate(0.000000,512.000000) scale(0.100000,-0.100000)"
fill="#000000" stroke="none">
<path d="M320 5113 c-94 -18 -211 -104 -263 -194 -61 -104 -57 64 -54 -2379
l2 -2235 31 -66 c35 -73 111 -157 171 -187 107 -55 -42 -52 2353 -52 2141 0
2210 0 2269 19 123 38 216 123 263 239 l23 57 0 2250 0 2250 -34 69 c-43 89
-113 159 -199 199 l-67 32 -2235 1 c-1229 1 -2246 -1 -2260 -3z m2545 -1228
c362 -76 592 -258 689 -546 14 -42 28 -100 32 -130 7 -62 7 -56 5 -90 l-1 -26
-310 0 c-170 0 -310 0 -310 1 -1 1 -3 19 -6 41 -17 129 -76 209 -194 264 -46
21 -72 26 -156 28 -109 3 -152 -6 -229 -44 -120 -59 -172 -161 -139 -274 31
-105 167 -190 469 -293 202 -68 242 -84 375 -150 339 -168 502 -402 501 -718
0 -280 -129 -485 -385 -613 -169 -84 -341 -119 -586 -119 -155 -1 -237 9 -360
40 -166 43 -313 110 -415 187 -98 74 -217 224 -256 324 -40 102 -67 246 -60
321 1 9 71 12 316 12 l315 0 0 -22 c2 -91 38 -204 84 -261 68 -85 196 -128
381 -129 121 0 230 39 283 102 46 54 65 157 43 235 -36 128 -125 187 -471 310
-279 100 -432 172 -555 259 -379 271 -429 746 -110 1049 121 115 342 215 540
244 22 3 60 9 85 12 80 13 339 4 425 -14z"/>
</g>
</svg>
